#!OML:ASF H:\Terrain\Patient Classification 1\Walking\steve\steve.ASF
:FULLY-SPECIFIED
:DEGREES
62
root 8.86399 15.6722 -23.9074 5.38495 -0.985841 5.18169
lowerback 1.02921 -0.148285 -8.22109
upperback -3.15568 -0.454955 -0.25414
thorax -3.80842 0.0190667 4.36482
lowerneck -10.3286 -0.479857 -4.01166
upperneck 11.1699 -0.381656 2.78762
head 5.06445 -0.170375 1.49416
rclavicle 5.6312e-015 -2.28602e-014
rhumerus -72.7116 -29.0711 -42.516
rradius 16.2642
rwrist 24.6569
rhand -15.1554 -38.9338
rfingers 7.12502
rthumb 11.0149 -68.6248
lclavicle 5.6312e-015 -2.28602e-014
lhumerus -5.46244 -0.861388 83.646
lradius 33.0611
lwrist 24.7056
lhand -24.6867 -11.9801
lfingers 7.12502
lthumb 1.81412 17.992
rfemur -40.2686 -0.173107 19.0473
rtibia 33.5598
rfoot -15.9301 3.29693
rtoes -8.08905
lfemur 4.60405 3.63664 -28.0949
ltibia 14.3178
lfoot -13.2814 -10.0749
ltoes -5.39421
63
root 8.86059 15.6534 -23.6729 5.64852 -0.700813 5.13975
lowerback 0.74881 -0.222487 -8.24171
upperback -3.15036 -0.526251 -0.237589
thorax -3.63368 -0.022725 4.39432
lowerneck -10.4312 -0.512031 -3.6948
upperneck 10.9646 -0.445416 2.60936
head 5.01923 -0.198594 1.3813
rclavicle 3.48417e-015 3.18055e-015
rhumerus -74.8877 -29.2301 -39.8538
rradius 16.3691
rwrist 25.7086
rhand -15.4141 -38.8889
rfingers 7.12502
rthumb 10.7653 -68.5931
lclavicle 3.48417e-015 3.18055e-015
lhumerus -3.80366 -1.77984 83.3098
lradius 33.7902
lwrist 25.507
lhand -24.3726 -13.5137
lfingers 7.12502
lthumb 2.11753 16.4556
rfemur -40.8693 -0.23506 19.1943
rtibia 31.0463
rfoot -16.1634 3.21425
rtoes -7.40417
lfemur 6.45041 3.7601 -27.839
ltibia 11.8819
lfoot -11.7691 -10.9666
ltoes 0.290237
64
root 8.84471 15.6318 -23.4413 6.19079 -1.13959 5.327
lowerback 0.0572444 -0.116291 -8.76293
upperback -3.2241 -0.331958 -0.277893
thorax -3.34906 0.0789287 4.63396
lowerneck -9.94049 -0.611015 -3.48127
upperneck 10.159 -0.616977 2.59721
head 4.69305 -0.275116 1.32742
rclavicle 1.42449e-014 2.70347e-014
rhumerus -75.9888 -28.5081 -39.577
rradius 16.688
rwrist 24.5579
rhand -15.6554 -39.6214
rfingers 7.12502
rthumb 10.5326 -69.3375
lclavicle 1.42449e-014 2.70347e-014
lhumerus -2.13149 -2.59289 82.8787
lradius 34.4268
lwrist 26.2319
lhand -24.156 -14.6613
lfingers 7.12502
lthumb 2.32672 15.3058
rfemur -41.9854 0.0653553 19.2617
rtibia 28.8223
rfoot -15.6382 3.03467
rtoes -8.41382
lfemur 8.24407 4.05586 -27.9716
ltibia 8.97348
lfoot -10.4308 -10.9464
ltoes 3.7731
65
root 8.83843 15.6177 -23.2122 6.75846 -0.95575 5.73486
lowerback -0.442109 -0.198636 -9.19857
upperback -3.38891 -0.407608 -0.384133
thorax -3.23138 0.052114 4.76638
lowerneck -9.70494 -0.74702 -3.59536
upperneck 9.97774 -0.796551 2.6603
head 4.60431 -0.364748 1.35282
rclavicle 3.58744e-016 3.18055e-015
rhumerus -77.5484 -28.2391 -37.6402
rradius 16.3146
rwrist 24.9164
rhand -15.5562 -39.6004
rfingers 7.12502
rthumb 10.6283 -69.3116
lclavicle 3.58744e-016 3.18055e-015
lhumerus -0.734559 -3.40495 82.4499
lradius 35.2058
lwrist 27.051
lhand -24.0899 -14.8592
lfingers 7.12502
lthumb 2.39055 15.1071
rfemur -42.9798 -0.243375 19.0607
rtibia 26.8115
rfoot -15.1961 4.34175
rtoes -5.9179
lfemur 10.2178 3.71897 -28.3848
ltibia 5.56579
lfoot -9.0014 -10.2638
ltoes 3.96364
66
root 8.83982 15.6011 -22.9827 7.12319 -0.410199 5.62669
lowerback -0.599758 -0.350407 -8.86851
upperback -3.53281 -0.596137 -0.380456
thorax -3.26384 -0.0451869 4.58826
lowerneck -9.48632 -0.796647 -3.42329
upperneck 9.91323 -0.859535 2.3591
head 4.54826 -0.408704 1.22748
rclavicle -1.54012e-014 -4.96962e-015
rhumerus -79.5492 -28.2118 -34.6709
rradius 15.8571
rwrist 26.2568
rhand -15.107 -38.9484
rfingers 7.12502
rthumb 11.0615 -68.6369
lclavicle -1.54012e-014 -4.96962e-015
lhumerus 0.307572 -4.14084 82.0075
lradius 36.2712
lwrist 27.7308
lhand -24.2122 -14.6954
lfingers 7.12502
lthumb 2.27245 15.2723
rfemur -43.6175 -1.07156 19.6376
rtibia 25.0273
rfoot -14.4863 6.06114
rtoes -1.41022
lfemur 13.5492 3.12591 -28.3008
ltibia 2.54444e-014
lfoot -6.81193 -8.82354
ltoes 2.53859
67
root 8.83726 15.5751 -22.749 7.201 0.0530254 5.22514
lowerback -0.585789 -0.433173 -8.37856
upperback -3.5664 -0.697947 -0.193544
thorax -3.2899 -0.105002 4.51127
lowerneck -9.13492 -0.842084 -3.6172
upperneck 9.57423 -0.90118 2.35306
head 4.3879 -0.437529 1.25436
rclavicle 1.72065e-014 1.17283e-014
rhumerus -81.0733 -27.8027 -32.6789
rradius 15.7942
rwrist 26.7884
rhand -14.3816 -38.6386
rfingers 7.12502
rthumb 11.7612 -68.2884
lclavicle 1.72065e-014 1.17283e-014
lhumerus 1.20701 -4.65177 81.782
lradius 37.3994
lwrist 28.1995
lhand -24.5266 -14.823
lfingers 7.12502
lthumb 1.96877 15.1476
rfemur -44.0564 -2.23014 20.9751
rtibia 23.5896
rfoot -13.5988 6.89006
rtoes -1.81226
lfemur 14.408 2.6707 -27.7649
ltibia 4.13472e-014
lfoot -7.11668 -8.78527
ltoes 1.50687
68
root 8.83622 15.5517 -22.5094 7.13654 0.554622 5.38998
lowerback -0.569115 -0.571721 -8.53752
upperback -3.45154 -0.877248 -0.0691684
thorax -3.1515 -0.197072 4.7335
lowerneck -9.47102 -0.879609 -3.98715
upperneck 9.58738 -0.89598 2.42734
head 4.44979 -0.442143 1.33718
rclavicle 4.12711e-015 -8.54774e-015
rhumerus -81.9828 -27.3974 -31.1697
rradius 15.6546
rwrist 27.0378
rhand -13.7866 -38.3712
rfingers 7.12502
rthumb 12.3349 -67.9873
lclavicle 4.12711e-015 -8.54774e-015
lhumerus 2.35271 -4.71571 81.7158
lradius 38.1121
lwrist 28.324
lhand -24.8229 -15.5735
lfingers 7.12502
lthumb 1.68266 14.3996
rfemur -44.5051 -4.03572 22.0577
rtibia 22.5887
rfoot -12.8453 7.98178
rtoes -6.81699
lfemur 15.3966 2.13171 -27.8125
ltibia 2.54444e-014
lfoot -7.06397 -8.89827
ltoes 3.12115
69
root 8.83743 15.5265 -22.2711 7.15868 0.956052 5.88285
lowerback -0.620467 -0.766773 -8.93523
upperback -3.30976 -1.13115 -0.136585
thorax -2.93498 -0.327707 4.88822
lowerneck -10.2358 -0.882978 -3.66295
upperneck 9.87064 -0.868164 1.97222
head 4.66005 -0.441548 1.14463
rclavicle -1.07355e-014 7.35503e-015
rhumerus -82.6355 -27.1396 -30.0205
rradius 15.4403
rwrist 27.284
rhand -13.2548 -37.9498
rfingers 7.12502
rthumb 12.8476 -67.5344
lclavicle -1.07355e-014 7.35503e-015
lhumerus 3.61829 -4.64477 81.3374
lradius 38.5362
lwrist 28.3913
lhand -24.9989 -16.2444
lfingers 7.12502
lthumb 1.51263 13.73
rfemur -45.1641 -5.97197 22.8779
rtibia 22.0807
rfoot -12.2497 9.86821
rtoes -11.2243
lfemur 16.2705 1.65229 -28.2714
ltibia -1.27222e-014
lfoot -6.56948 -8.95297
ltoes 5.4948
